<mxfile host="app.diagrams.net" modified="2023-11-21T16:42:42.274Z" agent="Mozilla/5.0 (Windows NT 10.0; Win64; x64) AppleWebKit/537.36 (KHTML, like Gecko) Chrome/119.0.0.0 Safari/537.36" etag="KygnNmJyATSo2y-SCv-R" version="22.1.3" type="github">
  <diagram name="Page-1" id="6b6uh_4TJlQ3adnK5AjD">
    <mxGraphModel dx="1050" dy="566" grid="1" gridSize="10" guides="1" tooltips="1" connect="1" arrows="1" fold="1" page="1" pageScale="1" pageWidth="850" pageHeight="1100" math="0" shadow="0">
      <root>
        <mxCell id="0" />
        <mxCell id="1" parent="0" />
        <mxCell id="zNyXPqg9oiyo-zX9OfNO-1" value="" style="group;labelBackgroundColor=none;labelBorderColor=#002060;strokeColor=none;rounded=0;" vertex="1" connectable="0" parent="1">
          <mxGeometry x="100" y="40" width="790" height="570" as="geometry" />
        </mxCell>
        <mxCell id="zNyXPqg9oiyo-zX9OfNO-2" value="No. of&amp;nbsp; employees" style="ellipse;whiteSpace=wrap;html=1;align=center;dashed=1;rounded=0;labelBackgroundColor=none;" vertex="1" parent="zNyXPqg9oiyo-zX9OfNO-1">
          <mxGeometry x="670" y="10" width="120" height="40" as="geometry" />
        </mxCell>
        <mxCell id="zNyXPqg9oiyo-zX9OfNO-3" value="" style="group;labelBorderColor=default;rounded=0;labelBackgroundColor=none;" vertex="1" connectable="0" parent="zNyXPqg9oiyo-zX9OfNO-1">
          <mxGeometry width="760" height="570" as="geometry" />
        </mxCell>
        <mxCell id="zNyXPqg9oiyo-zX9OfNO-4" value="Employee" style="whiteSpace=wrap;html=1;align=center;rounded=0;labelBackgroundColor=none;" vertex="1" parent="zNyXPqg9oiyo-zX9OfNO-3">
          <mxGeometry x="100" y="130" width="100" height="40" as="geometry" />
        </mxCell>
        <mxCell id="zNyXPqg9oiyo-zX9OfNO-5" value="Salary" style="ellipse;whiteSpace=wrap;html=1;align=center;rounded=0;labelBackgroundColor=none;" vertex="1" parent="zNyXPqg9oiyo-zX9OfNO-3">
          <mxGeometry x="230" y="40" width="100" height="40" as="geometry" />
        </mxCell>
        <mxCell id="zNyXPqg9oiyo-zX9OfNO-6" value="Email" style="ellipse;whiteSpace=wrap;html=1;align=center;rounded=0;labelBackgroundColor=none;" vertex="1" parent="zNyXPqg9oiyo-zX9OfNO-3">
          <mxGeometry x="170" width="100" height="40" as="geometry" />
        </mxCell>
        <mxCell id="zNyXPqg9oiyo-zX9OfNO-7" value="Name" style="ellipse;whiteSpace=wrap;html=1;align=center;rounded=0;labelBackgroundColor=none;" vertex="1" parent="zNyXPqg9oiyo-zX9OfNO-3">
          <mxGeometry x="60" width="100" height="40" as="geometry" />
        </mxCell>
        <mxCell id="zNyXPqg9oiyo-zX9OfNO-8" value="SSN" style="ellipse;whiteSpace=wrap;html=1;align=center;fontStyle=4;rounded=0;labelBackgroundColor=none;" vertex="1" parent="zNyXPqg9oiyo-zX9OfNO-3">
          <mxGeometry y="40" width="100" height="40" as="geometry" />
        </mxCell>
        <mxCell id="zNyXPqg9oiyo-zX9OfNO-9" value="" style="html=1;verticalAlign=bottom;endArrow=block;curved=0;rounded=0;entryX=1;entryY=1;entryDx=0;entryDy=0;fontColor=default;labelBackgroundColor=none;" edge="1" parent="zNyXPqg9oiyo-zX9OfNO-3" source="zNyXPqg9oiyo-zX9OfNO-4" target="zNyXPqg9oiyo-zX9OfNO-8">
          <mxGeometry width="80" relative="1" as="geometry">
            <mxPoint x="125" y="100" as="sourcePoint" />
            <mxPoint x="95" y="70" as="targetPoint" />
            <Array as="points" />
          </mxGeometry>
        </mxCell>
        <mxCell id="zNyXPqg9oiyo-zX9OfNO-10" value="" style="html=1;verticalAlign=bottom;endArrow=block;curved=0;rounded=0;entryX=0.5;entryY=1;entryDx=0;entryDy=0;exitX=0.567;exitY=0.002;exitDx=0;exitDy=0;exitPerimeter=0;fontColor=default;labelBackgroundColor=none;" edge="1" parent="zNyXPqg9oiyo-zX9OfNO-3" source="zNyXPqg9oiyo-zX9OfNO-4" target="zNyXPqg9oiyo-zX9OfNO-6">
          <mxGeometry width="80" relative="1" as="geometry">
            <mxPoint x="190" y="230" as="sourcePoint" />
            <mxPoint x="270" y="230" as="targetPoint" />
            <mxPoint as="offset" />
          </mxGeometry>
        </mxCell>
        <mxCell id="zNyXPqg9oiyo-zX9OfNO-11" value="" style="html=1;verticalAlign=bottom;endArrow=block;curved=0;rounded=0;exitX=0.412;exitY=-0.01;exitDx=0;exitDy=0;exitPerimeter=0;fontColor=default;labelBackgroundColor=none;" edge="1" parent="zNyXPqg9oiyo-zX9OfNO-3" source="zNyXPqg9oiyo-zX9OfNO-4" target="zNyXPqg9oiyo-zX9OfNO-7">
          <mxGeometry width="80" relative="1" as="geometry">
            <mxPoint x="150" y="90" as="sourcePoint" />
            <mxPoint x="110" y="40" as="targetPoint" />
            <mxPoint as="offset" />
          </mxGeometry>
        </mxCell>
        <mxCell id="zNyXPqg9oiyo-zX9OfNO-12" value="" style="html=1;verticalAlign=bottom;endArrow=block;curved=0;rounded=0;entryX=0;entryY=1;entryDx=0;entryDy=0;fontColor=default;labelBackgroundColor=none;" edge="1" parent="zNyXPqg9oiyo-zX9OfNO-3" source="zNyXPqg9oiyo-zX9OfNO-4" target="zNyXPqg9oiyo-zX9OfNO-5">
          <mxGeometry width="80" relative="1" as="geometry">
            <mxPoint x="160" y="130" as="sourcePoint" />
            <mxPoint x="112" y="74" as="targetPoint" />
            <Array as="points" />
          </mxGeometry>
        </mxCell>
        <mxCell id="zNyXPqg9oiyo-zX9OfNO-13" value="Department" style="whiteSpace=wrap;html=1;align=center;rounded=0;labelBackgroundColor=none;" vertex="1" parent="zNyXPqg9oiyo-zX9OfNO-3">
          <mxGeometry x="580" y="130" width="100" height="40" as="geometry" />
        </mxCell>
        <mxCell id="zNyXPqg9oiyo-zX9OfNO-14" value="Dep_No" style="ellipse;whiteSpace=wrap;html=1;align=center;fontStyle=4;rounded=0;labelBackgroundColor=none;" vertex="1" parent="zNyXPqg9oiyo-zX9OfNO-3">
          <mxGeometry x="520" y="10" width="100" height="40" as="geometry" />
        </mxCell>
        <mxCell id="zNyXPqg9oiyo-zX9OfNO-15" value="" style="html=1;verticalAlign=bottom;endArrow=block;curved=0;rounded=0;exitX=0.337;exitY=-0.017;exitDx=0;exitDy=0;exitPerimeter=0;fontColor=default;labelBackgroundColor=none;" edge="1" parent="zNyXPqg9oiyo-zX9OfNO-3" source="zNyXPqg9oiyo-zX9OfNO-13" target="zNyXPqg9oiyo-zX9OfNO-14">
          <mxGeometry width="80" relative="1" as="geometry">
            <mxPoint x="605" y="140" as="sourcePoint" />
            <mxPoint x="580" y="50" as="targetPoint" />
            <mxPoint as="offset" />
          </mxGeometry>
        </mxCell>
        <mxCell id="zNyXPqg9oiyo-zX9OfNO-16" value="&lt;br&gt;" style="edgeLabel;html=1;align=center;verticalAlign=middle;resizable=0;points=[];rounded=0;labelBackgroundColor=none;" vertex="1" connectable="0" parent="zNyXPqg9oiyo-zX9OfNO-15">
          <mxGeometry x="-0.136" relative="1" as="geometry">
            <mxPoint as="offset" />
          </mxGeometry>
        </mxCell>
        <mxCell id="zNyXPqg9oiyo-zX9OfNO-17" value="Works_for" style="shape=rhombus;perimeter=rhombusPerimeter;whiteSpace=wrap;html=1;align=center;rounded=0;labelBackgroundColor=none;" vertex="1" parent="zNyXPqg9oiyo-zX9OfNO-3">
          <mxGeometry x="345" y="190" width="120" height="60" as="geometry" />
        </mxCell>
        <mxCell id="zNyXPqg9oiyo-zX9OfNO-18" value="" style="endArrow=none;html=1;rounded=0;exitX=1;exitY=0.5;exitDx=0;exitDy=0;fontColor=default;labelBackgroundColor=none;" edge="1" parent="zNyXPqg9oiyo-zX9OfNO-3" source="zNyXPqg9oiyo-zX9OfNO-4" target="zNyXPqg9oiyo-zX9OfNO-17">
          <mxGeometry relative="1" as="geometry">
            <mxPoint x="250" y="220" as="sourcePoint" />
            <mxPoint x="410" y="220" as="targetPoint" />
          </mxGeometry>
        </mxCell>
        <mxCell id="zNyXPqg9oiyo-zX9OfNO-19" value="" style="endArrow=none;html=1;rounded=0;entryX=0;entryY=0.5;entryDx=0;entryDy=0;fontColor=default;labelBackgroundColor=none;" edge="1" parent="zNyXPqg9oiyo-zX9OfNO-3" source="zNyXPqg9oiyo-zX9OfNO-17" target="zNyXPqg9oiyo-zX9OfNO-13">
          <mxGeometry relative="1" as="geometry">
            <mxPoint x="250" y="220" as="sourcePoint" />
            <mxPoint x="410" y="220" as="targetPoint" />
          </mxGeometry>
        </mxCell>
        <mxCell id="zNyXPqg9oiyo-zX9OfNO-20" value="Project" style="whiteSpace=wrap;html=1;align=center;rounded=0;labelBackgroundColor=none;" vertex="1" parent="zNyXPqg9oiyo-zX9OfNO-3">
          <mxGeometry x="580" y="410" width="100" height="40" as="geometry" />
        </mxCell>
        <mxCell id="zNyXPqg9oiyo-zX9OfNO-21" value="" style="edgeStyle=orthogonalEdgeStyle;rounded=0;orthogonalLoop=1;jettySize=auto;html=1;labelBackgroundColor=none;fontColor=default;" edge="1" parent="zNyXPqg9oiyo-zX9OfNO-3" source="zNyXPqg9oiyo-zX9OfNO-22" target="zNyXPqg9oiyo-zX9OfNO-13">
          <mxGeometry relative="1" as="geometry" />
        </mxCell>
        <mxCell id="zNyXPqg9oiyo-zX9OfNO-22" value="Controls" style="shape=rhombus;perimeter=rhombusPerimeter;whiteSpace=wrap;html=1;align=center;rounded=0;labelBackgroundColor=none;" vertex="1" parent="zNyXPqg9oiyo-zX9OfNO-3">
          <mxGeometry x="570" y="250" width="120" height="60" as="geometry" />
        </mxCell>
        <mxCell id="zNyXPqg9oiyo-zX9OfNO-23" value="" style="endArrow=none;html=1;rounded=0;fontColor=default;labelBackgroundColor=none;" edge="1" parent="zNyXPqg9oiyo-zX9OfNO-3" source="zNyXPqg9oiyo-zX9OfNO-20" target="zNyXPqg9oiyo-zX9OfNO-22">
          <mxGeometry relative="1" as="geometry">
            <mxPoint x="550" y="370" as="sourcePoint" />
            <mxPoint x="710" y="370" as="targetPoint" />
          </mxGeometry>
        </mxCell>
        <mxCell id="zNyXPqg9oiyo-zX9OfNO-24" value="" style="endArrow=none;html=1;rounded=0;exitX=0.5;exitY=0;exitDx=0;exitDy=0;fontColor=default;labelBackgroundColor=none;" edge="1" parent="zNyXPqg9oiyo-zX9OfNO-3" source="zNyXPqg9oiyo-zX9OfNO-22" target="zNyXPqg9oiyo-zX9OfNO-13">
          <mxGeometry relative="1" as="geometry">
            <mxPoint x="560" y="219.57999999999998" as="sourcePoint" />
            <mxPoint x="720" y="219.57999999999998" as="targetPoint" />
          </mxGeometry>
        </mxCell>
        <mxCell id="zNyXPqg9oiyo-zX9OfNO-25" value="Proj_No" style="ellipse;whiteSpace=wrap;html=1;align=center;rounded=0;labelBackgroundColor=none;" vertex="1" parent="zNyXPqg9oiyo-zX9OfNO-3">
          <mxGeometry x="490" y="530" width="100" height="40" as="geometry" />
        </mxCell>
        <mxCell id="zNyXPqg9oiyo-zX9OfNO-26" value="Proj_Name" style="ellipse;whiteSpace=wrap;html=1;align=center;rounded=0;labelBackgroundColor=none;" vertex="1" parent="zNyXPqg9oiyo-zX9OfNO-3">
          <mxGeometry x="660" y="530" width="100" height="40" as="geometry" />
        </mxCell>
        <mxCell id="zNyXPqg9oiyo-zX9OfNO-27" value="" style="html=1;verticalAlign=bottom;endArrow=block;curved=0;rounded=0;exitX=0.67;exitY=1;exitDx=0;exitDy=0;exitPerimeter=0;fontColor=default;labelBackgroundColor=none;" edge="1" parent="zNyXPqg9oiyo-zX9OfNO-3" source="zNyXPqg9oiyo-zX9OfNO-20" target="zNyXPqg9oiyo-zX9OfNO-26">
          <mxGeometry width="80" relative="1" as="geometry">
            <mxPoint x="635" y="595" as="sourcePoint" />
            <mxPoint x="610" y="505" as="targetPoint" />
            <mxPoint as="offset" />
          </mxGeometry>
        </mxCell>
        <mxCell id="zNyXPqg9oiyo-zX9OfNO-28" value="" style="html=1;verticalAlign=bottom;endArrow=block;curved=0;rounded=0;fontColor=default;labelBackgroundColor=none;" edge="1" parent="zNyXPqg9oiyo-zX9OfNO-3" source="zNyXPqg9oiyo-zX9OfNO-20" target="zNyXPqg9oiyo-zX9OfNO-25">
          <mxGeometry width="80" relative="1" as="geometry">
            <mxPoint x="430" y="520" as="sourcePoint" />
            <mxPoint x="405" y="430" as="targetPoint" />
            <mxPoint as="offset" />
          </mxGeometry>
        </mxCell>
        <mxCell id="zNyXPqg9oiyo-zX9OfNO-29" value="" style="html=1;verticalAlign=bottom;endArrow=block;curved=0;rounded=0;exitX=0.75;exitY=0;exitDx=0;exitDy=0;fontColor=default;labelBackgroundColor=none;" edge="1" parent="zNyXPqg9oiyo-zX9OfNO-1" source="zNyXPqg9oiyo-zX9OfNO-13" target="zNyXPqg9oiyo-zX9OfNO-2">
          <mxGeometry width="80" relative="1" as="geometry">
            <mxPoint x="624" y="139" as="sourcePoint" />
            <mxPoint x="589" y="60" as="targetPoint" />
            <mxPoint as="offset" />
          </mxGeometry>
        </mxCell>
      </root>
    </mxGraphModel>
  </diagram>
</mxfile>
